<svg xmlns="http://www.w3.org/2000/svg" width="25" height="25" viewBox="0 0 25 25">
  <g id="グループ_14240" data-name="グループ 14240" transform="translate(-342.001)">
    <rect id="長方形_20254" data-name="長方形 20254" width="25" height="25" transform="translate(342.001)" opacity="0"/>
    <g id="グループ_14208" data-name="グループ 14208">
      <path id="パス_4069" data-name="パス 4069" d="M354.688,8.16a6.068,6.068,0,0,0,1.6-.386,6.322,6.322,0,0,1,1.961-.386,4.161,4.161,0,0,1,2.412.727,7.2,7.2,0,0,1,.59.491,6.336,6.336,0,0,1,.589.633,8.067,8.067,0,0,0-1.289,1.355,3.874,3.874,0,0,0-.749,2.325,4.269,4.269,0,0,0,.793,2.522,3.421,3.421,0,0,0,1.785,1.422,13.089,13.089,0,0,1-.568,1.393A11.628,11.628,0,0,1,361,19.683q-1.443,2.148-2.909,2.148a5,5,0,0,1-1.608-.364,5.877,5.877,0,0,0-1.686-.3,4.811,4.811,0,0,0-1.63.319,4.285,4.285,0,0,1-1.487.386q-1.709,0-3.382-2.864a11.271,11.271,0,0,1-1.675-5.685,6.711,6.711,0,0,1,1.267-4.219,3.957,3.957,0,0,1,3.228-1.631,7.321,7.321,0,0,1,2.005.342A7.636,7.636,0,0,0,354.688,8.16ZM358.136,3.6a4.116,4.116,0,0,1-.341,1.559,5.018,5.018,0,0,1-1.036,1.558,3.533,3.533,0,0,1-1.245.8,6.684,6.684,0,0,1-1.145.187,5.1,5.1,0,0,1,.87-2.9,4.47,4.47,0,0,1,2.831-1.68,1.452,1.452,0,0,1,.055.27A1.975,1.975,0,0,1,358.136,3.6Z"/>
    </g>
  </g>
</svg>
