<svg xmlns="http://www.w3.org/2000/svg" width="19" height="19" viewBox="0 0 19 19">
  <g id="グループ_14219" data-name="グループ 14219" transform="translate(-1097 -558)">
    <path id="パス_4078" data-name="パス 4078" d="M1116,567.5a9.5,9.5,0,1,0-10.984,9.385v-6.639H1102.6V567.5h2.412v-2.093a3.352,3.352,0,0,1,3.588-3.7,14.646,14.646,0,0,1,2.126.185v2.338h-1.2a1.374,1.374,0,0,0-1.549,1.484V567.5h2.635l-.421,2.746h-2.214v6.639A9.5,9.5,0,0,0,1116,567.5Z" fill="#1877f2"/>
    <path id="パス_4079" data-name="パス 4079" d="M1110.2,570.246l.421-2.746h-2.635v-1.782a1.374,1.374,0,0,1,1.549-1.484h1.2V561.9a14.646,14.646,0,0,0-2.126-.185,3.352,3.352,0,0,0-3.588,3.7V567.5H1102.6v2.746h2.412v6.639a9.633,9.633,0,0,0,2.968,0v-6.639Z" fill="#fff"/>
  </g>
</svg>
